#!OML:ASF H:\Terrain\Patient Classification 1\Terrain2\Thursday\justin.ASF
:FULLY-SPECIFIED
:DEGREES
2334
root 8.42869 16.9848 -21.583 281.683 82.8918 -78.6221
lowerback 5.84345 1.89132 6.62006
upperback 2.35412 3.09054 4.33246
thorax -0.737258 1.62479 0.571438
lowerneck -10.9155 -4.79534 -8.9017
upperneck 39.1548 -4.03379 3.33093
head 16.0942 -1.90526 2.56338
rclavicle 3.13086e-014 4.29375e-014
rhumerus -26.9269 -9.61831 -77.9768
rradius 32.3723
rwrist -12.1809
rhand -20.7535 13.4467
rfingers 7.12502
rthumb 5.6123 -16.459
lclavicle 3.13086e-014 4.29375e-014
lhumerus -37.1059 4.15221 84.0345
lradius 33.1997
lwrist 2.71831
lhand -19.7764 18.2221
lfingers 7.12502
lthumb 6.55565 48.1006
rfemur -11.8455 -3.34525 28.0521
rtibia 40.8059
rfoot -23.7676 6.70676
rtoes 16.7334
lfemur -18.7798 3.20457 -15.0889
ltibia 42.21
lfoot -19.9434 -3.90962
ltoes 10.3644
2335
root 8.47576 16.9752 -21.602 279.623 83.4033 -80.471
lowerback 5.9071 1.89975 6.10363
upperback 2.31676 3.0693 4.15937
thorax -0.83027 1.60561 0.674904
lowerneck -10.7762 -4.79858 -9.21528
upperneck 39.1861 -4.108 3.74655
head 16.1075 -1.92344 2.7942
rclavicle 1.6201e-014 -2.46493e-014
rhumerus -27.441 -9.97569 -77.8293
rradius 32.0732
rwrist -12.1332
rhand -20.3831 13.6913
rfingers 7.12502
rthumb 5.97 -16.2046
lclavicle 1.6201e-014 -2.46493e-014
lhumerus -37.2393 4.33682 83.7529
lradius 33.239
lwrist 2.7919
lhand -19.5887 18.1096
lfingers 7.12502
lthumb 6.73687 47.9824
rfemur -12.0221 -3.63354 27.6317
rtibia 41.8343
rfoot -23.9759 5.34697
rtoes 11.9128
lfemur -18.2618 2.53863 -15.5423
ltibia 42.1172
lfoot -19.7656 -5.02405
ltoes 17.8297
2336
root 8.52531 16.9612 -21.6271 276.868 84.222 -83.0447
lowerback 5.90633 1.96773 5.39537
upperback 2.33766 3.09998 3.86228
thorax -0.828754 1.61322 0.758509
lowerneck -10.7232 -4.89964 -9.02491
upperneck 39.0884 -4.30323 3.69748
head 16.0512 -1.98201 2.70325
rclavicle -2.51463e-014 1.35174e-014
rhumerus -27.9152 -10.8526 -77.5195
rradius 31.8077
rwrist -11.6957
rhand -20.0252 13.8635
rfingers 7.12502
rthumb 6.3155 -16.0224
lclavicle -2.51463e-014 1.35174e-014
lhumerus -37.2286 4.27239 83.5314
lradius 33.2943
lwrist 2.71601
lhand -19.5199 18.0816
lfingers 7.12502
lthumb 6.80331 47.9523
rfemur -12.2727 -4.15771 26.8407
rtibia 43.0009
rfoot -24.0648 3.8374
rtoes 5.70139
lfemur -17.8063 2.14064 -16.467
ltibia 41.9697
lfoot -19.6762 -5.50547
ltoes 19.6836
2337
root 8.57703 16.9524 -21.6577 273.875 85.0357 -85.8873
lowerback 5.80527 1.89055 4.65701
upperback 2.37822 2.93274 3.64923
thorax -0.761279 1.52437 0.963002
lowerneck -10.7543 -4.86928 -8.78524
upperneck 39.0609 -4.1737 3.30783
head 16.012 -1.94432 2.5092
rclavicle 1.00386e-014 -6.36111e-015
rhumerus -28.2122 -10.9505 -77.2911
rradius 31.5219
rwrist -11.5132
rhand -19.8442 13.9158
rfingers 7.12502
rthumb 6.49023 -15.9648
lclavicle 1.00386e-014 -6.36111e-015
lhumerus -37.3229 4.55583 83.2799
lradius 33.379
lwrist 2.73724
lhand -19.6755 18.2537
lfingers 7.12502
lthumb 6.65306 48.1292
rfemur -12.5186 -4.37467 25.8637
rtibia 44.2089
rfoot -24.2843 3.13736
rtoes 2.39953
lfemur -17.3797 1.66593 -17.4701
ltibia 41.8369
lfoot -19.7557 -5.62543
ltoes 20.1947
2338
root 8.62534 16.9333 -21.6836 269.416 85.3735 -90.1267
lowerback 5.79922 1.7479 4.37612
upperback 2.42246 2.71958 3.53113
thorax -0.723299 1.41644 1.0113
lowerneck -10.8589 -4.60979 -9.26696
upperneck 39.217 -3.79398 3.77692
head 16.1166 -1.79086 2.87177
rclavicle -2.29596e-014 -2.62396e-014
rhumerus -28.3434 -10.5517 -77.2636
rradius 31.0548
rwrist -11.7659
rhand -19.9537 13.7699
rfingers 7.12502
rthumb 6.38453 -16.1139
lclavicle -2.29596e-014 -2.62396e-014
lhumerus -37.3985 4.94578 82.9173
lradius 33.4346
lwrist 2.93449
lhand -19.696 18.2417
lfingers 7.12502
lthumb 6.63328 48.1178
rfemur -12.8481 -4.42595 25.3959
rtibia 45.4625
rfoot -24.1515 2.83354
rtoes 1.56003
lfemur -16.9278 1.32504 -17.9308
ltibia 41.7208
lfoot -19.9479 -5.77379
ltoes 20.095
2339
root 8.66771 16.9126 -21.7069 264.94 85.4054 -94.3384
lowerback 5.94814 1.7731 4.53585
upperback 2.48044 2.76425 3.34303
thorax -0.728604 1.43971 0.722256
lowerneck -10.5174 -5.01681 -8.48431
upperneck 38.7349 -4.42961 3.05612
head 15.7862 -2.04546 2.29514
rclavicle -2.17669e-014 -2.06736e-014
rhumerus -28.5886 -10.7653 -77.2403
rradius 30.6367
rwrist -12.0257
rhand -20.4383 13.6638
rfingers 7.12502
rthumb 5.9167 -16.2336
lclavicle -2.17669e-014 -2.06736e-014
lhumerus -37.2476 4.8362 82.6082
lradius 33.4216
lwrist 3.17498
lhand -19.8714 18.3459
lfingers 7.12502
lthumb 6.464 48.2273
rfemur -13.2629 -4.54724 25.265
rtibia 46.8146
rfoot -23.6551 2.94439
rtoes 2.897
lfemur -16.4539 1.21211 -18.0577
ltibia 41.592
lfoot -20.1405 -5.96448
ltoes 19.4979
2340
root 8.71355 16.9053 -21.7245 258.434 86.0082 -100.516
lowerback 6.15791 1.84339 3.92625
upperback 2.52337 2.82306 3.07398
thorax -0.816225 1.46248 0.773318
lowerneck -10.7753 -4.88348 -9.25458
upperneck 39.1719 -4.32051 4.05683
head 16.1297 -1.96775 2.90522
rclavicle 9.34288e-015 0
rhumerus -29.06 -11.7421 -76.9091
rradius 30.4034
rwrist -11.6858
rhand -20.6111 13.4986
rfingers 7.12502
rthumb 5.74982 -16.4034
lclavicle 9.34288e-015 0
lhumerus -37.2408 4.72692 82.409
lradius 33.4133
lwrist 3.1615
lhand -20.1438 18.5006
lfingers 7.12502
lthumb 6.20101 48.3898
rfemur -13.5668 -5.09398 24.4374
rtibia 48.2864
rfoot -22.9044 3.21959
rtoes 3.59792
lfemur -15.867 1.08241 -18.8494
ltibia 41.4834
lfoot -20.2891 -6.28627
ltoes 19.9642
2341
root 8.76234 16.9005 -21.7364 249.188 86.6725 -109.447
lowerback 6.27858 1.91049 2.97333
upperback 2.61482 2.85061 2.86641
thorax -0.825251 1.46988 1.08567
lowerneck -10.636 -5.30051 -8.79795
upperneck 38.9874 -4.91395 3.53488
head 16.0187 -2.2213 2.48674
rclavicle -3.37934e-014 -9.54166e-015
rhumerus -29.3726 -12.7203 -76.4724
rradius 30.0986
rwrist -11.1008
rhand -20.3248 13.0888
rfingers 7.12502
rthumb 6.02626 -16.8055
lclavicle -3.37934e-014 -9.54166e-015
lhumerus -37.228 4.73992 82.2684
lradius 33.4234
lwrist 3.09696
lhand -20.1826 18.3331
lfingers 7.12502
lthumb 6.16357 48.2234
rfemur -13.8427 -5.46421 23.5249
rtibia 49.8248
rfoot -21.4611 3.68988
rtoes 7.60386
lfemur -15.2941 1.14041 -19.7504
ltibia 41.4056
lfoot -20.4062 -6.84487
ltoes 21.8122
2342
root 8.80533 16.8906 -21.7592 250.066 86.2416 -108.186
lowerback 6.51877 1.98894 3.40883
upperback 2.73879 2.99833 2.95416
thorax -0.812649 1.55036 0.917205
lowerneck -10.9475 -5.11466 -9.47876
upperneck 39.2245 -4.61097 4.12626
head 16.2438 -2.10972 2.92744
rclavicle 1.49089e-014 0
rhumerus -29.5115 -13.0477 -76.2263
rradius 29.6713
rwrist -10.9754
rhand -20.0885 12.9241
rfingers 7.12502
rthumb 6.25441 -16.9636
lclavicle 1.49089e-014 0
lhumerus -37.0939 4.83992 82.146
lradius 33.4256
lwrist 3.26151
lhand -20.184 18.4401
lfingers 7.12502
lthumb 6.1622 48.3305
rfemur -14.1696 -4.98816 24.0116
rtibia 51.5196
rfoot -19.839 4.50079
rtoes 18.269
lfemur -14.6874 1.4217 -19.2583
ltibia 41.2733
lfoot -20.5691 -7.5502
ltoes 24.7318
2343
root 8.84506 16.8695 -21.7772 245.794 86.0498 -112.245
lowerback 6.59688 2.00618 3.45327
upperback 2.82318 3.02698 2.92615
thorax -0.764911 1.56739 0.860778
lowerneck -10.7597 -5.37071 -8.58226
upperneck 38.8469 -4.9871 3.30119
head 15.9636 -2.25125 2.32763
rclavicle -3.40916e-014 -3.57812e-014
rhumerus -29.6571 -13.2965 -76.0856
rradius 29.2602
rwrist -11.1263
rhand -20.1396 12.8604
rfingers 7.12502
rthumb 6.20501 -17.0287
lclavicle -3.40916e-014 -3.57812e-014
lhumerus -36.9492 5.01301 81.9016
lradius 33.4307
lwrist 3.2342
lhand -20.1661 18.8194
lfingers 7.12502
lthumb 6.1795 48.7092
rfemur -14.8079 -4.84973 23.9557
rtibia 53.2458
rfoot -20.2135 3.30713
rtoes 6.01423
lfemur -14.3084 1.43089 -19.2291
ltibia 41.1782
lfoot -20.58 -8.11022
ltoes 26.1224
2344
root 8.88217 16.8824 -21.8009 241.142 86.0296 -116.599
lowerback 6.7601 2.00628 3.37284
upperback 2.94375 3.02632 2.82065
thorax -0.729646 1.56907 0.793566
lowerneck -10.7752 -5.39093 -8.37869
upperneck 38.7773 -5.05919 3.25489
head 15.9247 -2.25812 2.2572
rclavicle 2.32578e-014 -8.74653e-015
rhumerus -29.788 -13.6687 -75.9612
rradius 28.8762
rwrist -11.1026
rhand -20.3266 12.7395
rfingers 7.12502
rthumb 6.02455 -17.1549
lclavicle 2.32578e-014 -8.74653e-015
lhumerus -36.8562 5.31063 81.5202
lradius 33.4329
lwrist 3.01268
lhand -20.2249 18.8819
lfingers 7.12502
lthumb 6.12265 48.7734
rfemur -15.1692 -5.00986 23.7058
rtibia 55.2564
rfoot -19.9791 2.48759
rtoes -0.856593
lfemur -13.7719 1.43003 -19.4096
ltibia 41.0392
lfoot -20.3599 -8.19216
ltoes 23.5306
